HIERARCHY
ROOT Hips
{
	OFFSET 0.000000 0.000000 0.000000
	CHANNELS 6 Xposition Yposition Zposition Zrotation Yrotation Xrotation 
	JOINT LowerBack
	{
		OFFSET 0.000000 0.000000 0.000000
		CHANNELS 3 Zrotation Yrotation Xrotation
		JOINT Spine
		{
			OFFSET 0.028270 2.035590 -0.193380
			CHANNELS 3 Zrotation Yrotation Xrotation
			JOINT Spine1
			{
				OFFSET 0.056720 2.048850 -0.042750
				CHANNELS 3 Zrotation Yrotation Xrotation
				JOINT Neck
				{
					OFFSET 0.000000 0.000000 0.000000
					CHANNELS 3 Zrotation Yrotation Xrotation
					JOINT Neck1
					{
						OFFSET -0.054170 1.746240 0.172020
						CHANNELS 3 Zrotation Yrotation Xrotation
						JOINT Head
						{
							OFFSET 0.104070 1.761360 -0.123970
							CHANNELS 3 Zrotation Yrotation Xrotation
							End Site
							{
								OFFSET 0.000000 0.000000 0.000000
							}
						}
					}
				}
				JOINT LeftShoulder
				{
					OFFSET 0.000000 0.000000 0.000000
					CHANNELS 3 Zrotation Yrotation Xrotation
					JOINT LeftArm
					{
						OFFSET 3.362410 1.200890 -0.311210
						CHANNELS 3 Zrotation Yrotation Xrotation
						JOINT LeftForeArm
						{
							OFFSET 4.983000 -0.000000 -0.000000
							CHANNELS 3 Zrotation Yrotation Xrotation
							JOINT LeftHand
							{
								OFFSET 3.483560 -0.000000 -0.000000
								CHANNELS 3 Zrotation Yrotation Xrotation
								JOINT LeftFingerBase
								{
									OFFSET 0.000000 0.000000 0.000000
									CHANNELS 3 Zrotation Yrotation Xrotation
									JOINT LeftHandIndex1
									{
										OFFSET 0.715260 -0.000000 -0.000000
										CHANNELS 3 Zrotation Yrotation Xrotation
										End Site
										{
											OFFSET 0.000000 0.000000 0.000000
										}
									}
								}
								JOINT LThumb
								{
									OFFSET 0.000000 0.000000 0.000000
									CHANNELS 3 Zrotation Yrotation Xrotation
									End Site
									{
										OFFSET 0.000000 0.000000 0.000000
									}
								}
							}
						}
					}
				}
				JOINT RightShoulder
				{
					OFFSET 0.000000 0.000000 0.000000
					CHANNELS 3 Zrotation Yrotation Xrotation
					JOINT RightArm
					{
						OFFSET -3.136600 1.374050 -0.404650
						CHANNELS 3 Zrotation Yrotation Xrotation
						JOINT RightForeArm
						{
							OFFSET -5.241900 -0.000000 -0.000000
							CHANNELS 3 Zrotation Yrotation Xrotation
							JOINT RightHand
							{
								OFFSET -3.444170 -0.000000 -0.000000
								CHANNELS 3 Zrotation Yrotation Xrotation
								JOINT RightFingerBase
								{
									OFFSET 0.000000 0.000000 0.000000
									CHANNELS 3 Zrotation Yrotation Xrotation
									JOINT RightHandIndex1
									{
										OFFSET -0.622530 -0.000000 -0.000000
										CHANNELS 3 Zrotation Yrotation Xrotation
										End Site
										{
											OFFSET 0.000000 0.000000 0.000000
										}
									}
								}
								JOINT RThumb
								{
									OFFSET 0.000000 0.000000 0.000000
									CHANNELS 3 Zrotation Yrotation Xrotation
									End Site
									{
										OFFSET 0.000000 0.000000 0.000000
									}
								}
							}
						}
					}
				}
			}
		}
	}
}
}
MOTION
Frames: 18
Frame Time: 0.008333
8.109522 21.442291 1.657013 44.776450 -87.852097 -23.329433 0.025327 -0.715570 -0.756870 0.211531 -0.669990 -2.483731 -1.626385 -0.658120 1.041223 -1.306314 -7.838245 3.463584 -2.428807 -0.314449 2.900050 0.000000 0.000000 0.000000 19.165857 10.562696 -4.089474 -71.314222 -30.788584 16.732045 179.464120 -48.247202 179.843426 9.795440 -9.983692 -0.983364 -0.231398 1.191254 -0.000000 0.000000 0.000000 0.000000 0.000000 0.000000 0.000000 -8.500886 -9.448388 -4.667509 34.553639 46.562580 -7.186582 -178.095396 65.398252 179.703411 -25.384330 19.928536 -4.864606 0.404273 -1.088865 -0.000000 0.000000 0.000000 0.000000 0.000000 0.000000 0.000000 
7.921739 21.563843 1.645452 42.602075 -87.881247 -20.982188 0.122553 -0.693902 -0.394097 0.246080 -0.651691 -2.373938 -1.528659 -0.644995 1.180756 -1.439010 -7.947303 3.439269 -2.478390 -0.315733 2.878858 0.000000 0.000000 0.000000 19.595691 11.353341 -4.116203 -71.165914 -30.261676 15.823636 179.268061 -46.593191 179.822514 10.918258 -11.357144 -1.242462 -0.276131 1.266541 -0.000000 0.000000 0.000000 0.000000 0.000000 0.000000 0.000000 -8.692608 -9.979510 -4.919502 33.568849 46.340628 -8.659507 -177.892773 63.612082 179.686834 -27.217469 20.583572 -5.405270 0.454672 -1.116518 -0.000000 0.000000 0.000000 0.000000 0.000000 0.000000 0.000000 
7.735035 21.675472 1.633590 40.567143 -87.894684 -18.730004 0.197708 -0.677403 -0.053053 0.275621 -0.637098 -2.268638 -1.437584 -0.635939 1.316349 -1.550560 -8.087845 3.390477 -2.511487 -0.315841 2.851261 0.000000 0.000000 0.000000 19.983378 12.114432 -4.137312 -70.994347 -29.774593 14.973319 179.041779 -45.174645 179.797728 12.303965 -12.957706 -1.592997 -0.330802 1.350510 -0.000000 0.000000 0.000000 0.000000 0.000000 0.000000 0.000000 -8.900092 -10.517071 -5.157319 32.815448 46.114553 -9.968197 -177.698117 61.962823 179.672416 -28.957023 21.101494 -5.914637 0.504053 -1.139505 -0.000000 0.000000 0.000000 0.000000 0.000000 0.000000 0.000000 
7.548304 21.776139 1.621434 38.664269 -87.899079 -16.571449 0.249892 -0.666568 0.249437 0.300842 -0.626762 -2.174077 -1.349801 -0.631564 1.439490 -1.639288 -8.239777 3.331192 -2.527108 -0.314932 2.821617 0.000000 0.000000 0.000000 20.356639 12.805253 -4.154376 -70.828769 -29.275147 14.181987 178.789217 -43.979193 179.770604 13.874047 -14.695762 -2.033280 -0.390769 1.437805 -0.000000 0.000000 0.000000 0.000000 0.000000 0.000000 0.000000 -9.132437 -11.028001 -5.373956 32.300197 45.862085 -11.094138 -177.515502 60.453559 179.660351 -30.540884 21.483355 -6.370408 0.550709 -1.157989 -0.000000 0.000000 0.000000 0.000000 0.000000 0.000000 0.000000 
7.361670 21.865115 1.608816 36.950769 -87.898220 -14.571105 0.276206 -0.661410 0.516129 0.321117 -0.620556 -2.090508 -1.265227 -0.631571 1.547343 -1.702548 -8.398472 3.267449 -2.524892 -0.313073 2.791686 0.000000 0.000000 0.000000 20.730980 13.416611 -4.169446 -70.681689 -28.758869 13.447942 178.516128 -43.002977 179.742198 15.582603 -16.517256 -2.563926 -0.452571 1.524613 -0.000000 0.000000 0.000000 0.000000 0.000000 0.000000 0.000000 -9.388537 -11.501226 -5.565494 32.004591 45.585826 -12.042365 -177.347379 59.084642 179.650590 -31.924731 21.732988 -6.755189 0.593269 -1.172222 -0.000000 0.000000 0.000000 0.000000 0.000000 0.000000 0.000000 
7.176169 21.942148 1.595613 35.484782 -87.894041 -12.799739 0.276570 -0.662069 0.768192 0.335959 -0.618582 -2.013696 -1.185439 -0.635710 1.638245 -1.741803 -8.565945 3.202703 -2.504056 -0.310251 2.762179 0.000000 0.000000 0.000000 21.107862 13.955086 -4.184148 -70.553048 -28.249751 12.758910 178.231632 -42.246227 179.713444 17.392044 -18.372895 -3.181551 -0.513236 1.607462 -0.000000 0.000000 0.000000 0.000000 0.000000 0.000000 0.000000 -9.671757 -11.936404 -5.730304 31.915089 45.297078 -12.828936 -177.195757 57.853674 179.642975 -33.068842 21.862405 -7.055886 0.630387 -1.182671 -0.000000 0.000000 0.000000 0.000000 0.000000 0.000000 0.000000 
6.990705 22.006546 1.581861 34.079779 -87.890718 -11.080254 0.255566 -0.668478 0.994951 0.346254 -0.621251 -1.947534 -1.109748 -0.644318 1.708107 -1.753361 -8.721739 3.152452 -2.469323 -0.306917 2.737568 0.000000 0.000000 0.000000 21.507803 14.388028 -4.199012 -70.461704 -27.711437 12.101352 177.944401 -41.691733 179.685985 19.216380 -20.145627 -3.854371 -0.568796 1.680402 -0.000000 0.000000 0.000000 0.000000 0.000000 0.000000 0.000000 -9.967112 -12.309530 -5.865211 31.995084 44.987577 -13.456476 -177.063068 56.755114 179.637355 -33.946947 21.882835 -7.264397 0.661443 -1.189937 -0.000000 0.000000 0.000000 0.000000 0.000000 0.000000 0.000000 
6.805716 22.058479 1.567476 32.772148 -87.888040 -9.458473 0.214326 -0.680779 1.209694 0.351529 -0.628773 -1.889072 -1.040562 -0.657307 1.756861 -1.738442 -8.863303 3.122042 -2.423660 -0.303284 2.719059 0.000000 0.000000 0.000000 21.926667 14.717167 -4.214926 -70.403226 -27.163369 11.454992 177.665815 -41.334498 179.660822 20.994136 -21.757321 -4.549005 -0.617076 1.739994 -0.000000 0.000000 0.000000 0.000000 0.000000 0.000000 0.000000 -10.264575 -12.620027 -5.970349 32.217415 44.672067 -13.942513 -176.951873 55.786424 179.633566 -34.540097 21.816794 -7.380327 0.685719 -1.194769 -0.000000 0.000000 0.000000 0.000000 0.000000 0.000000 0.000000 
6.621238 22.098194 1.552448 31.511397 -87.885223 -7.892031 0.156767 -0.699128 1.418552 0.351869 -0.641626 -1.836820 -0.980294 -0.674913 1.785236 -1.696432 -8.984638 3.117246 -2.371977 -0.299684 2.708082 0.000000 0.000000 0.000000 22.360062 14.940168 -4.232442 -70.374550 -26.618703 10.800948 177.407022 -41.162746 179.638917 22.647869 -23.118070 -5.216267 -0.656466 1.783290 -0.000000 0.000000 0.000000 0.000000 0.000000 0.000000 0.000000 -10.546314 -12.865990 -6.046360 32.547628 44.365889 -14.301214 -176.864359 54.938952 179.631486 -34.840698 21.675567 -7.404174 0.703067 -1.197700 -0.000000 0.000000 0.000000 0.000000 0.000000 0.000000 0.000000 
6.437253 22.125875 1.536855 30.209177 -87.880985 -6.295130 0.090598 -0.723278 1.624478 0.348053 -0.660181 -1.789639 -0.931175 -0.697370 1.794023 -1.628121 -9.078408 3.141044 -2.322143 -0.296565 2.705240 0.000000 0.000000 0.000000 22.795062 15.059443 -4.251896 -70.367803 -26.095428 10.121950 177.178834 -41.167478 179.620976 24.099277 -24.151000 -5.800373 -0.686142 1.808596 -0.000000 0.000000 0.000000 0.000000 0.000000 0.000000 0.000000 -10.771998 -13.046627 -6.096769 32.931307 44.088475 -14.526711 -176.802929 54.233314 179.630487 -34.974455 21.590017 -7.408522 0.714977 -1.201278 -0.000000 0.000000 0.000000 0.000000 0.000000 0.000000 0.000000 
6.253833 22.141999 1.520835 28.862634 -87.873554 -4.662878 0.020372 -0.752973 1.826552 0.340395 -0.684528 -1.746763 -0.895434 -0.724679 1.786175 -1.534353 -9.142113 3.193229 -2.279877 -0.294232 2.710374 0.000000 0.000000 0.000000 23.215866 15.083099 -4.273482 -70.373786 -25.617804 9.406922 176.990839 -41.336077 179.607439 25.273514 -24.798757 -6.246631 -0.705907 1.815624 -0.000000 0.000000 0.000000 0.000000 0.000000 0.000000 0.000000 -10.915772 -13.166277 -6.124546 33.331063 43.861403 -14.626958 -176.769672 53.670366 179.630353 -34.986919 21.611413 -7.421570 0.722123 -1.206747 -0.000000 0.000000 0.000000 0.000000 0.000000 0.000000 0.000000 
6.070998 22.146982 1.504510 27.429219 -87.861803 -2.946624 -0.047379 -0.787584 2.021314 0.329790 -0.714501 -1.707897 -0.874857 -0.756646 1.765200 -1.416500 -9.175311 3.271154 -2.249584 -0.292885 2.722729 0.000000 0.000000 0.000000 23.604558 15.022333 -4.296992 -70.381788 -25.210431 8.651157 176.851244 -41.657921 179.598556 26.108768 -25.028606 -6.510948 -0.715919 1.805112 -0.000000 0.000000 0.000000 0.000000 0.000000 0.000000 0.000000 -10.957463 -13.230877 -6.132670 33.714580 43.703208 -14.612718 -176.765809 53.248695 179.630929 -34.918474 21.776414 -7.464812 0.725225 -1.214976 -0.000000 0.000000 0.000000 0.000000 0.000000 0.000000 0.000000 
5.888632 22.141358 1.488075 25.881119 -87.846244 -1.109195 -0.108152 -0.826524 2.201590 0.317139 -0.749741 -1.673553 -0.871480 -0.792839 1.737444 -1.277950 -9.186661 3.370419 -2.227131 -0.292258 2.741344 0.000000 0.000000 0.000000 23.947239 14.890783 -4.321806 -70.383358 -24.896150 7.857294 176.765729 -42.118479 179.594435 26.563312 -24.833369 -6.568123 -0.716557 1.778664 -0.000000 0.000000 0.000000 0.000000 0.000000 0.000000 0.000000 -10.939529 -13.252401 -6.120149 34.116535 43.620669 -14.545089 -176.792245 52.902331 179.633393 -34.520571 21.868024 -7.408569 0.721258 -1.222356 -0.000000 0.000000 0.000000 0.000000 0.000000 0.000000 0.000000 
5.706886 22.125035 1.471696 24.232225 -87.827556 0.843108 -0.157556 -0.868493 2.360308 0.303259 -0.789195 -1.644496 -0.885713 -0.832296 1.706024 -1.122457 -9.178482 3.485438 -2.213834 -0.292353 2.764786 0.000000 0.000000 0.000000 24.229534 14.701500 -4.346515 -70.368041 -24.690719 7.031710 176.736651 -42.700480 179.595062 26.624911 -24.232556 -6.417155 -0.708297 1.738295 -0.000000 0.000000 0.000000 0.000000 0.000000 0.000000 0.000000 -10.857907 -13.237706 -6.090120 34.528939 43.621942 -14.428838 -176.847268 52.628606 179.637581 -33.842395 21.905246 -7.270436 0.710997 -1.229087 -0.000000 0.000000 0.000000 0.000000 0.000000 0.000000 0.000000 
5.525649 22.098221 1.455471 22.549641 -87.808545 2.856389 -0.193638 -0.912053 2.488773 0.288597 -0.831465 -1.621893 -0.917401 -0.873744 1.673898 -0.954455 -9.152971 3.610438 -2.209409 -0.293078 2.791557 0.000000 0.000000 0.000000 24.439674 14.467296 -4.368905 -70.324292 -24.603890 6.184784 176.763973 -43.386530 179.600321 26.313183 -23.265125 -6.080640 -0.691867 1.686149 -0.000000 0.000000 0.000000 0.000000 0.000000 0.000000 0.000000 -10.715973 -13.192121 -6.045211 34.951371 43.708394 -14.269936 -176.928653 52.422946 179.643394 -32.925146 21.898361 -7.064112 0.695041 -1.235164 -0.000000 0.000000 0.000000 0.000000 0.000000 0.000000 0.000000 
5.344825 22.060506 1.439539 20.817176 -87.792183 4.950797 -0.213763 -0.955363 2.582254 0.273897 -0.874801 -1.606780 -0.965557 -0.915544 1.641954 -0.777810 -9.109541 3.741480 -2.212596 -0.294318 2.820702 0.000000 0.000000 0.000000 24.573472 14.194687 -4.386422 -70.244551 -24.632701 5.329696 176.843834 -44.156003 179.609953 25.672888 -21.989521 -5.599370 -0.668120 1.624619 -0.000000 0.000000 0.000000 0.000000 0.000000 0.000000 0.000000 -10.522631 -13.116329 -5.987410 35.389224 43.869807 -14.070658 -177.032948 52.277390 179.650705 -31.812714 21.852782 -6.802893 0.674111 -1.240476 -0.000000 0.000000 0.000000 0.000000 0.000000 0.000000 0.000000 
5.164285 22.011692 1.423937 19.057406 -87.782203 7.105698 -0.217598 -0.996528 2.637900 0.259534 -0.917222 -1.599975 -1.028543 -0.955831 1.610187 -0.597282 -9.047015 3.875469 -2.221305 -0.295924 2.851443 0.000000 0.000000 0.000000 24.630911 13.888836 -4.396457 -70.121344 -24.767097 4.479678 176.969124 -44.987800 179.623477 24.770952 -20.473489 -5.024033 -0.638288 1.556086 -0.000000 0.000000 0.000000 0.000000 0.000000 0.000000 0.000000 -10.291084 -13.009025 -5.918690 35.850658 44.090004 -13.832168 -177.156040 52.187607 179.659370 -30.550286 21.770860 -6.499376 0.648931 -1.244768 -0.000000 0.000000 0.000000 0.000000 0.000000 0.000000 0.000000 
4.984013 21.951025 1.408574 17.358942 -87.783011 9.227643 -0.209423 -1.034027 2.658370 0.244838 -0.956802 -1.601335 -1.104774 -0.992715 1.577278 -0.416117 -8.963548 4.010851 -2.233186 -0.297753 2.883337 0.000000 0.000000 0.000000 24.615973 13.552038 -4.396718 -69.948082 -24.992043 3.647972 177.130666 -45.863076 179.640198 23.685343 -18.787908 -4.404921 -0.603954 1.482859 -0.000000 0.000000 0.000000 0.000000 0.000000 0.000000 0.000000 -10.034975 -12.867824 -5.840614 36.346750 44.350196 -13.553977 -177.293417 52.145151 179.669201 -29.181239 21.652304 -6.165160 0.620341 -1.247809 -0.000000 0.000000 0.000000 0.000000 0.000000 0.000000 0.000000 
